<mxfile host="65bd71144e">
    <diagram id="N20sCTxd-WAfv6IwHoIB" name="Page-1">
        <mxGraphModel dx="1936" dy="779" grid="1" gridSize="10" guides="1" tooltips="1" connect="1" arrows="1" fold="1" page="1" pageScale="1" pageWidth="850" pageHeight="1100" math="0" shadow="0">
            <root>
                <mxCell id="0"/>
                <mxCell id="1" parent="0"/>
                <mxCell id="6" style="edgeStyle=none;html=1;entryX=0.013;entryY=0.425;entryDx=0;entryDy=0;exitX=1;exitY=0.25;exitDx=0;exitDy=0;entryPerimeter=0;" edge="1" parent="1" source="2" target="3">
                    <mxGeometry relative="1" as="geometry">
                        <mxPoint x="430" y="380" as="targetPoint"/>
                    </mxGeometry>
                </mxCell>
                <mxCell id="7" value="Fazer Pedido" style="edgeLabel;html=1;align=center;verticalAlign=middle;resizable=0;points=[];" vertex="1" connectable="0" parent="6">
                    <mxGeometry x="-0.1617" y="-3" relative="1" as="geometry">
                        <mxPoint y="-19" as="offset"/>
                    </mxGeometry>
                </mxCell>
                <mxCell id="19" value="Ver Outros Produtos" style="edgeStyle=none;html=1;entryX=1;entryY=0.5;entryDx=0;entryDy=0;" edge="1" parent="1" source="2" target="18">
                    <mxGeometry x="0.1429" y="20" relative="1" as="geometry">
                        <mxPoint as="offset"/>
                    </mxGeometry>
                </mxCell>
                <mxCell id="2" value="Cliente" style="rounded=0;whiteSpace=wrap;html=1;" vertex="1" parent="1">
                    <mxGeometry x="180" y="350" width="120" height="60" as="geometry"/>
                </mxCell>
                <mxCell id="8" value="Confirmar Pedido" style="edgeStyle=none;html=1;exitX=-0.025;exitY=0.613;exitDx=0;exitDy=0;exitPerimeter=0;" edge="1" parent="1" source="3" target="2">
                    <mxGeometry x="0.1016" y="11" relative="1" as="geometry">
                        <mxPoint x="480" y="371" as="sourcePoint"/>
                        <mxPoint as="offset"/>
                    </mxGeometry>
                </mxCell>
                <mxCell id="9" style="edgeStyle=none;html=1;" edge="1" parent="1" source="3" target="4">
                    <mxGeometry relative="1" as="geometry">
                        <Array as="points">
                            <mxPoint x="460" y="410"/>
                            <mxPoint x="460" y="440"/>
                            <mxPoint x="460" y="480"/>
                        </Array>
                    </mxGeometry>
                </mxCell>
                <mxCell id="10" value="Ver Quantidade" style="edgeLabel;html=1;align=center;verticalAlign=middle;resizable=0;points=[];" vertex="1" connectable="0" parent="9">
                    <mxGeometry x="0.1937" y="-1" relative="1" as="geometry">
                        <mxPoint x="-39" as="offset"/>
                    </mxGeometry>
                </mxCell>
                <mxCell id="3" value="Pedidio" style="ellipse;whiteSpace=wrap;html=1;aspect=fixed;" vertex="1" parent="1">
                    <mxGeometry x="480" y="330" width="80" height="80" as="geometry"/>
                </mxCell>
                <mxCell id="11" value="Se Tiver&lt;div&gt;Confirmar pedido&lt;/div&gt;" style="edgeStyle=none;html=1;" edge="1" parent="1" source="4" target="3">
                    <mxGeometry x="-0.1134" y="-50" relative="1" as="geometry">
                        <Array as="points">
                            <mxPoint x="580" y="500"/>
                            <mxPoint x="580" y="450"/>
                            <mxPoint x="580" y="430"/>
                            <mxPoint x="570" y="410"/>
                        </Array>
                        <mxPoint as="offset"/>
                    </mxGeometry>
                </mxCell>
                <mxCell id="4" value="Estoque" style="ellipse;whiteSpace=wrap;html=1;aspect=fixed;" vertex="1" parent="1">
                    <mxGeometry x="480" y="470" width="80" height="80" as="geometry"/>
                </mxCell>
                <mxCell id="13" value="Confirmar Pagamento" style="edgeStyle=none;html=1;entryX=0.5;entryY=0;entryDx=0;entryDy=0;" edge="1" parent="1" source="5" target="3">
                    <mxGeometry x="0.4286" relative="1" as="geometry">
                        <Array as="points">
                            <mxPoint x="520" y="180"/>
                        </Array>
                        <mxPoint as="offset"/>
                    </mxGeometry>
                </mxCell>
                <mxCell id="5" value="ConfirmarPagamento" style="ellipse;whiteSpace=wrap;html=1;aspect=fixed;" vertex="1" parent="1">
                    <mxGeometry x="320" y="110" width="140" height="140" as="geometry"/>
                </mxCell>
                <mxCell id="12" value="&lt;div style=&quot;text-align: justify;&quot;&gt;&lt;span style=&quot;background-color: light-dark(#ffffff, var(--ge-dark-color, #121212));&quot;&gt;Pedir Certeza em Comprar Produto&lt;/span&gt;&lt;/div&gt;" style="edgeStyle=none;html=1;entryX=0.007;entryY=0.457;entryDx=0;entryDy=0;entryPerimeter=0;" edge="1" parent="1" source="2" target="5">
                    <mxGeometry x="-0.2996" relative="1" as="geometry">
                        <Array as="points">
                            <mxPoint x="240" y="174"/>
                        </Array>
                        <mxPoint as="offset"/>
                    </mxGeometry>
                </mxCell>
                <mxCell id="17" value="MandarConfirmação" style="edgeStyle=none;html=1;" edge="1" parent="1" source="14" target="2">
                    <mxGeometry relative="1" as="geometry">
                        <Array as="points">
                            <mxPoint x="740" y="640"/>
                            <mxPoint x="500" y="640"/>
                            <mxPoint x="240" y="640"/>
                        </Array>
                    </mxGeometry>
                </mxCell>
                <mxCell id="20" value="Controlar" style="edgeStyle=none;html=1;" edge="1" parent="1" source="14" target="4">
                    <mxGeometry x="0.3103" y="10" relative="1" as="geometry">
                        <Array as="points">
                            <mxPoint x="740" y="510"/>
                        </Array>
                        <mxPoint as="offset"/>
                    </mxGeometry>
                </mxCell>
                <mxCell id="21" style="edgeStyle=none;html=1;" edge="1" parent="1" source="14" target="18">
                    <mxGeometry relative="1" as="geometry">
                        <Array as="points">
                            <mxPoint x="740" y="40"/>
                            <mxPoint x="-20" y="40"/>
                        </Array>
                    </mxGeometry>
                </mxCell>
                <mxCell id="14" value="Gerente" style="rounded=0;whiteSpace=wrap;html=1;" vertex="1" parent="1">
                    <mxGeometry x="680" y="340" width="120" height="60" as="geometry"/>
                </mxCell>
                <mxCell id="15" value="Receber Pagamento" style="edgeStyle=none;html=1;entryX=0;entryY=0.5;entryDx=0;entryDy=0;" edge="1" parent="1" source="3" target="14">
                    <mxGeometry y="20" relative="1" as="geometry">
                        <Array as="points">
                            <mxPoint x="630" y="370"/>
                        </Array>
                        <mxPoint as="offset"/>
                    </mxGeometry>
                </mxCell>
                <mxCell id="18" value="VerLoja" style="rounded=0;whiteSpace=wrap;html=1;" vertex="1" parent="1">
                    <mxGeometry x="-80" y="350" width="120" height="60" as="geometry"/>
                </mxCell>
            </root>
        </mxGraphModel>
    </diagram>
</mxfile>